<?xml version="1.0" encoding="UTF-8"?>
<svg id="Layer_2" data-name="Layer 2" xmlns="http://www.w3.org/2000/svg" viewBox="0 0 601.55 807.04">
  <defs>
    <style>
      .cls-1 {
        fill: #de94e8;
      }

      .cls-2 {
        fill: #d590e2;
      }

      .cls-3 {
        fill: #67498e;
      }

      .cls-4 {
        fill: #e69aed;
      }
    </style>
  </defs>
  <g id="Layer_1-2" data-name="Layer 1">
    <g>
      <g>
        <g>
          <path class="cls-1" d="M151.52,197.43c27.17,6.04,68.99,25.17,86.09,48.49-38.22-17.92-75.5-34.4-117.5-24.21l-50.85,12.33c-11.3-7.89-20.13-17.27-29.8-26.98C33.49,132.18,32.37,40.18,105.48,0c-39.34,36.57-49.07,84.87-45.3,137.24,1.72,21.09,5.19,41.16,10.96,61.36.89,3.13,5.53,3.71,8.28,3.48l46.1-3.84c8.43-.7,17.45-2.72,26.01-.81Z"/>
          <path class="cls-3" d="M258.73,258.66l-6.81-12.91c-28.76-45.5-71.42-72.74-119.85-93.91-7.08-30.32-5.03-61.16,7.34-89.51,9.29-19.66,22.57-37.24,42.46-47.44-21.56,24.22-32.71,53.51-32.56,85.36-.11,13.14,1.24,25.48,5.04,38.15l33.06,21.03c20.95,14.86,38.74,33.21,53.72,54.03,9.86,13.71,16.44,28.29,17.61,45.21Z"/>
        </g>
        <g>
          <path class="cls-1" d="M497.8,1.46c-1.1-.3-.62-1.63.39-1.31l.88.84.73.59c-.11.31.23.47.36.17,25.58,15.66,43.76,39.6,53.31,68.56,14.46,43.88,13.24,90.85,9.15,136.96l-16.36,15.8c-4.35,4.2-8.25,8.49-13.79,11.16l-47.05-12.16c-42.26-10.92-81.83,4.5-120.38,23.56,5.18-8.06,11.95-13.29,19.38-18.52,20.16-14.21,42.82-24.13,66.86-30.15,13.15-.17,25.21,1.17,38.14,2.06l34.09,3.19c2.35.22,6.78-.64,7.55-3.35,5.73-20.29,9.16-40.49,10.82-61.56,3.91-49.84-6.09-98.58-42.34-134.16l-.7-.72-.61-.56-.43-.4Z"/>
          <path class="cls-3" d="M343.99,258.39c.91-25.93,18.36-48.66,35.66-67.94,15.68-17.47,33.54-31.5,54.05-42.83,5.29-2.92,9.86-5.85,14.78-9.62,6.99-27.12,6.49-55.24-2.96-81.62-5.52-15.42-14.01-27.96-23.95-40.77,16.4,8.54,27.26,21.53,36.06,36.48,16.71,30.69,20.62,65.81,12.54,99.8-52.89,23.09-99.85,53.11-126.19,106.51Z"/>
        </g>
      </g>
      <path class="cls-3" d="M115.13,444.38c20.48,96.42,30.1,194.19,23.87,293.67-4.5-65.48-13.31-129.43-29.6-193.63-8.76-34.53-17.63-68.21-30.77-101.28-16.18-43.56-39.17-71.51-73.47-101.56-3.49-3.05-5.64-7.16-5.06-11.22.68-4.8,3.22-7.65,7.19-10.34,36.55-24.73,72.95-49.52,114.54-65.43,37.69-5.22,80.09-4.68,115.86,7.24l-20.39.91c-29.93,1.34-59.65,4.91-87.91,15.65-25.72,9.78-48.04,25.39-68.99,42.65l-15.43,15.41c16.73,21.94,34.04,42.43,52.62,62.52l9.2,9,8.34,36.4Z"/>
      <g>
        <path class="cls-3" d="M461.88,746.69c-2-37.27-3.02-73.87-1.34-111.49,3.45-76.87,14.29-152.32,32.9-226.9l15.05-15.1c17.47-17.53,32.41-36.87,47.75-56.72-11.33-12.71-23.55-22.64-36.96-32.07-15.54-10.93-31.29-20.14-49.04-27.04-20.9-7.13-41.88-10.72-63.85-13.08l-42.5-2.23c35.66-12.88,78.62-12.65,116.08-7.47,15.16,5.97,28.72,12.46,42.8,20.48,25.1,13.96,48.53,29.4,72.21,45.53,3.52,2.39,5.82,5,6.38,8.49.62,3.92-.23,8.08-3.22,10.91l-29.79,28.19c-20.88,22.02-35.9,47.04-46.74,75.45-12.08,31.67-21.36,63.4-29.56,96.46-15.78,63.57-25.82,127.63-29.01,192.98-.67,4.81,1.68,9.08-1.17,13.62Z"/>
        <g>
          <path class="cls-4" d="M456.6,325.07c-19.29-12.84-39.26-23.72-60.29-33.52-12.56-5.86-25.19-10.7-38.13-12.67-.16.04-.62.05-1.01-.58-.79-.09-.9.64-.33,1.1l.82.67c5.29,4.3,10.54,7.89,16.19,11.83,16.78,11.72,54.32,36.77,61.02,50.81,8.48,17.77-3.37,45.17-16.11,61.28-5.65,7.14-12.27,12.58-19.89,17.73-6.42,26.45-12.12,52.1-16.63,78.79-16.78,99.25-20.46,197.78-13.59,297.72l1.56-.44c2.74-104.18,15.04-198.41,43-298.61,9.15-32.79,20.87-64.2,33.05-95.9l13.62-35.43c5.31-13.81,7.37-35.69-3.28-42.78Z"/>
          <path class="cls-4" d="M174.18,331.88c12.52-11.43,25.92-21.15,39.88-30.96l31.6-22.2-9.34,1.49c-33.07,8.48-63.83,27.23-93.03,44.87-7,7.67-8.3,17.83-6.56,28.04,2.66,13.58,7.36,25.99,12.54,38.89,13.42,33.37,26.24,66.66,36.19,101.26,25.39,88.31,40.16,178.79,44.52,270.68l1.59,42.45c1.81-3.61,1.21-7.12,1.47-11.31,6.5-102.83,1.96-203.74-16.54-304.31-3.47-18.84-8.29-37.53-12.28-56.77l-2.56-12.35c-11.64-7.97-21.33-18.24-28.41-30.63-5.57-9.74-9.25-20.47-10.05-31.61-.82-11.31,2.84-20.13,10.97-27.55Z"/>
        </g>
        <path class="cls-2" d="M370.2,797.79c-.08,3.15,1.33,6.15-.8,9.26-2.08-3.35-.58-6.14-.76-8.81l1.56-.44Z"/>
      </g>
      <g>
        <polygon class="cls-3" points="327.41 132.44 312.79 151.39 327.45 170.78 341.81 151.55 327.41 132.44"/>
        <polygon class="cls-3" points="259.77 151.42 274.39 170.98 288.45 151.34 274.25 131.98 259.77 151.42"/>
        <polygon class="cls-3" points="300.87 92.85 286.38 112.25 300.91 131.56 315.13 112.19 300.87 92.85"/>
      </g>
      <path class="cls-4" d="M350.35,303.35c-32.09-47.88-9.63-69.6-7.65-86.09,1.06-8.8-7.74-18.37-17.15-21.35,3.44,8.71-.52,13.06-5.34,19.39-2.04.32-4.08.65-6.11.97-1.03-1.66-2.23-2.91-3.56-3.85-3.57-2.52-7.3-2.54-8.63-2.51-1.32.03-5.47.17-9.03,3.23-1.46,1.26-2.36,2.61-2.89,3.56-2.07-.3-4.15-.59-6.22-.89-1.9-1.7-5.98-5.86-7.52-12.49-.69-2.96-.67-5.57-.48-7.51-6.03,4.13-13.41,10.74-15.33,20.22-2.87,14.2,8.89,22.99,11.56,38.44,1.84,10.7-.38,26.35-18.47,47.9l-26.84,39.34,9.44,24.46,9.98,25.17,28.21,65.94c8.07,18.86,16.74,36.38,27.09,54.78l13.71-25.27c15.9-33.56,30.58-67.19,43.97-101.41l9.79-25.02,7.34-18.44-25.86-38.57ZM270.4,404.28l10.83-14.49,10.42,14.55-10.52,14.34-10.73-14.41ZM300.85,447.67l-10.73-14.37,10.76-14.3,10.53,14.34-10.56,14.33ZM320.51,418.34l-10.83-14.04,10.86-14.37,10.64,14.24-10.67,14.16Z"/>
    </g>
  </g>
</svg>