<?xml version="1.0" encoding="UTF-8"?>
<svg id="Layer_2" data-name="Layer 2" xmlns="http://www.w3.org/2000/svg" viewBox="0 0 62.98 61.47">
  <defs>
    <style>
      .cls-1 {
        fill: #fd9900;
      }

      .cls-2 {
        fill: #300;
      }
    </style>
  </defs>
  <g id="_7" data-name="7">
    <g id="ai_2" data-name="ai 2">
      <g>
        <path class="cls-2" d="M44.79,61.3l-36.79-7.03c-5.24-1-8.84-6.17-7.84-11.43L6.8,8.11C7.83,2.74,12.99-.86,18.39.18l36.58,7.01c5.33,1.02,8.85,6.21,7.83,11.54l-6.66,34.73c-.99,5.16-6.07,8.85-11.35,7.84ZM48.44,23.34c.3-1.57-.73-3.09-2.3-3.39s-3.09.73-3.39,2.3.73,3.09,2.3,3.39,3.09-.73,3.39-2.3ZM30.42,37.29l1.12,6.98,4.99.94-3.81-26.83-5.9-1.12c-.24.99-.49,1.83-1.03,2.7l-11.79,20.91,4.58.9,3.51-6.08,8.34,1.6ZM47.03,27.9l-4.67-.89-3.58,18.66,4.67.89,3.58-18.66Z"/>
        <g>
          <path class="cls-1" d="M30.42,37.29l-8.34-1.6-3.51,6.08-4.58-.9,11.79-20.91c.54-.87.8-1.71,1.03-2.7l5.9,1.12,3.81,26.83-4.99-.94-1.12-6.98ZM30.31,32.91l-1.28-11.21-5.22,9.97,6.5,1.24Z"/>
          <g>
            <rect class="cls-1" x="40.53" y="27.28" width="4.75" height="19" transform="translate(7.7 -7.42) rotate(10.86)"/>
            <circle class="cls-1" cx="45.59" cy="22.79" r="2.9"/>
          </g>
        </g>
        <polygon class="cls-2" points="30.31 32.91 23.81 31.68 29.03 21.7 30.31 32.91"/>
      </g>
    </g>
  </g>
</svg>